<svg width="166" height="166" viewBox="0 0 166 166" fill="none" xmlns="http://www.w3.org/2000/svg">
<g clip-path="url(#clip0_298_143)">
<rect x="2" y="2" width="162" height="162" rx="18" stroke="#2D3748" stroke-width="4"/>
<path d="M211.171 28.3867C239.056 28.6737 244.228 34.9057 283.865 56.8976C287.345 58.7756 289.333 59.3155 293 59.7251C288.68 59.9271 283.787 59.6065 281.775 58.3899C240.666 33.542 230.862 30.0625 211.171 30.1932C170.449 30.1932 154.668 30.0624 132.67 33.649L186.862 34.2774C171.333 56.2594 163.017 63.1024 160.695 63.6522C159.924 62.1674 158.821 61.6806 155.431 61.5316C132.974 60.6776 119.699 60.4887 95.2006 60.5105C126.282 59.002 145.639 57.8531 160.695 58.8611C165.65 55.4053 179.43 39.3826 179.043 37.3405C158.032 37.1477 146.263 37.0092 125.393 36.3195C112.774 42.5243 98.0483 51.9933 91.0201 57.8401C98.0489 51.2527 101.62 48.0517 108.826 43.4668C97.8328 48.1794 96.3489 49.644 79.6399 61.5316C47.4242 66.7906 33.1854 70.1808 23.3581 78.0255C22.3083 80.1835 22.325 82.319 22.5065 86.1154C22.7103 90.1948 22.812 92.4412 21.5001 92.3202C20.7529 92.206 20.3519 92.0739 19.7969 91.2992C20.8974 87.4585 20.694 86.3674 19.0228 86.1154C16.0485 89.8407 16.4174 93.7051 17.0608 100.446L17.0873 100.724C26.2225 105.908 24.4419 109.835 21.5001 115.569C19.7828 115.434 19.1456 114.912 18.7131 113.055C21.129 113.866 21.113 107.349 18.7131 106.851C16.4551 106.382 16.5238 110.26 17.3196 119.26C55.385 122.17 77.6335 122.604 118.116 122.323C118.694 99.8281 122.916 88.7858 135.38 83.9162C145.067 80.9213 154.103 84.3667 158.527 96.0903C160.435 103.211 160.54 115.804 158.527 124.523L205.597 123.737L156.669 126.172C158.025 108.968 158.527 106.607 156.309 97.6197C154.389 91.4488 146.414 83.3904 136.928 85.8012C123.698 90.1175 121.901 101.578 120.593 125.072C92.8007 126.251 38.5317 125.072 14.3005 122.716C12.3651 111.956 12.2878 88.5502 16.1585 78.8895C30.6072 66.7299 45.8529 63.0205 78.3239 58.7041C97.6088 46.2465 107.546 37.8445 125.393 30.9786C154.243 27.3245 157.753 27.8369 211.171 28.3867Z" fill="#2D3748"/>
<path d="M263.117 59.8037L177.804 60.9032L270.936 63.6522C239.815 25.6377 193.597 19.9826 174.475 57.0547C197.003 25.4021 234.163 29.6434 263.117 59.8037Z" fill="#2D3748"/>
<path d="M82.814 80.6959C71.905 76.7999 40.6994 76.7688 32.4932 80.6959C38.9188 79.2822 65.471 78.1302 78.3239 82.8166L69.808 99.0749L44.725 103.238C42.785 103.768 42.4282 103.703 40.6994 103.081L25.8354 98.1324L24.6742 88.236L24.1323 99.6247L38.9188 105.437C41.2184 106.327 42.5999 106.459 45.4218 106.065L72.9821 102.059L82.814 80.6959Z" fill="#2D3748"/>
<path d="M121.754 75.5121C106.381 77.7349 99.7424 80.0779 94.1168 87.6862C95.9206 78.4303 103.794 74.9623 127.328 70.3283C136.928 69.7 138.034 73.8437 132.283 75.5121C120.953 79.7496 114.894 82.1575 115.406 87.6862C115.714 89.8625 115.029 90.1285 113.161 89.8854C111.226 105.908 109.755 113.605 104.258 116.668L80.3366 116.119L76.5432 114.626L102.633 114.234C107.306 109.021 108.418 104.067 109.755 94.3623C110.065 92.5559 107.742 92.3988 107.742 94.1267L106.736 99.0749C105.446 104.058 102.789 104.765 97.2134 105.123L79.098 108.5L72.9821 112.584L78.3239 106.851L95.7425 102.688L95.8308 102.68C100.227 102.269 102.718 102.036 103.407 98.6036L104.8 90.7494L97.6779 90.2781L112.464 87.215C112.815 82.0696 114.701 79.4795 121.754 75.5121Z" fill="#2D3748"/>
<path d="M151.637 112.741C152.798 91.1421 138.089 81.8741 128.103 97.1113C135.38 81.0887 155.508 83.9162 155.973 112.741C155.973 137.325 132.67 148.007 126.477 126.172C133.057 142.509 151.018 137.718 151.637 112.741Z" fill="#2D3748"/>
</g>
<defs>
<clipPath id="clip0_298_143">
<rect width="166" height="166" fill="white"/>
</clipPath>
</defs>
</svg>
