<svg width="1991" height="318" viewBox="0 0 1991 318" fill="none" xmlns="http://www.w3.org/2000/svg">
<path d="M550.068 306V236.182H577.614C582.886 236.182 587.386 237.125 591.114 239.011C594.864 240.875 597.716 243.523 599.67 246.955C601.648 250.364 602.636 254.375 602.636 258.989C602.636 263.625 601.636 267.614 599.636 270.955C597.636 274.273 594.739 276.818 590.943 278.591C587.17 280.364 582.602 281.25 577.239 281.25H558.795V269.386H574.852C577.67 269.386 580.011 269 581.875 268.227C583.739 267.455 585.125 266.295 586.034 264.75C586.966 263.205 587.432 261.284 587.432 258.989C587.432 256.67 586.966 254.716 586.034 253.125C585.125 251.534 583.727 250.33 581.841 249.511C579.977 248.67 577.625 248.25 574.784 248.25H564.83V306H550.068ZM587.773 274.227L605.125 306H588.83L571.852 274.227H587.773ZM656.193 236.182H670.955V281.523C670.955 286.614 669.739 291.068 667.307 294.886C664.898 298.705 661.523 301.682 657.182 303.818C652.841 305.932 647.784 306.989 642.011 306.989C636.216 306.989 631.148 305.932 626.807 303.818C622.466 301.682 619.091 298.705 616.682 294.886C614.273 291.068 613.068 286.614 613.068 281.523V236.182H627.83V280.261C627.83 282.92 628.409 285.284 629.568 287.352C630.75 289.42 632.409 291.045 634.545 292.227C636.682 293.409 639.17 294 642.011 294C644.875 294 647.364 293.409 649.477 292.227C651.614 291.045 653.261 289.42 654.42 287.352C655.602 285.284 656.193 282.92 656.193 280.261V236.182ZM720.974 256.261C720.702 253.511 719.531 251.375 717.463 249.852C715.395 248.33 712.588 247.568 709.043 247.568C706.634 247.568 704.599 247.909 702.94 248.591C701.281 249.25 700.009 250.17 699.122 251.352C698.259 252.534 697.827 253.875 697.827 255.375C697.781 256.625 698.043 257.716 698.611 258.648C699.202 259.58 700.009 260.386 701.031 261.068C702.054 261.727 703.236 262.307 704.577 262.807C705.918 263.284 707.349 263.693 708.872 264.034L715.145 265.534C718.19 266.216 720.986 267.125 723.531 268.261C726.077 269.398 728.281 270.795 730.145 272.455C732.009 274.114 733.452 276.068 734.474 278.318C735.52 280.568 736.054 283.148 736.077 286.057C736.054 290.33 734.963 294.034 732.804 297.17C730.668 300.284 727.577 302.705 723.531 304.432C719.509 306.136 714.656 306.989 708.974 306.989C703.338 306.989 698.429 306.125 694.247 304.398C690.088 302.67 686.838 300.114 684.497 296.727C682.179 293.318 680.963 289.102 680.849 284.08H695.134C695.293 286.42 695.963 288.375 697.145 289.943C698.349 291.489 699.952 292.659 701.952 293.455C703.974 294.227 706.259 294.614 708.804 294.614C711.304 294.614 713.474 294.25 715.315 293.523C717.179 292.795 718.622 291.784 719.645 290.489C720.668 289.193 721.179 287.705 721.179 286.023C721.179 284.455 720.713 283.136 719.781 282.068C718.872 281 717.531 280.091 715.759 279.341C714.009 278.591 711.861 277.909 709.315 277.295L701.713 275.386C695.827 273.955 691.179 271.716 687.77 268.67C684.361 265.625 682.668 261.523 682.69 256.364C682.668 252.136 683.793 248.443 686.065 245.284C688.361 242.125 691.509 239.659 695.509 237.886C699.509 236.114 704.054 235.227 709.145 235.227C714.327 235.227 718.849 236.114 722.713 237.886C726.599 239.659 729.622 242.125 731.781 245.284C733.94 248.443 735.054 252.102 735.122 256.261H720.974ZM778.358 265.33V276.852H746.517V265.33H778.358ZM791.006 306V236.182H805.767V266.966H806.688L831.812 236.182H849.506L823.597 267.443L849.812 306H832.153L813.028 277.295L805.767 286.159V306H791.006ZM917.415 271.091C917.415 278.705 915.972 285.182 913.085 290.523C910.222 295.864 906.313 299.943 901.358 302.761C896.426 305.557 890.881 306.955 884.722 306.955C878.517 306.955 872.949 305.545 868.017 302.727C863.085 299.909 859.188 295.83 856.324 290.489C853.46 285.148 852.028 278.682 852.028 271.091C852.028 263.477 853.46 257 856.324 251.659C859.188 246.318 863.085 242.25 868.017 239.455C872.949 236.636 878.517 235.227 884.722 235.227C890.881 235.227 896.426 236.636 901.358 239.455C906.313 242.25 910.222 246.318 913.085 251.659C915.972 257 917.415 263.477 917.415 271.091ZM902.449 271.091C902.449 266.159 901.71 262 900.233 258.614C898.778 255.227 896.722 252.659 894.062 250.909C891.403 249.159 888.29 248.284 884.722 248.284C881.153 248.284 878.04 249.159 875.381 250.909C872.722 252.659 870.653 255.227 869.176 258.614C867.722 262 866.994 266.159 866.994 271.091C866.994 276.023 867.722 280.182 869.176 283.568C870.653 286.955 872.722 289.523 875.381 291.273C878.04 293.023 881.153 293.898 884.722 293.898C888.29 293.898 891.403 293.023 894.062 291.273C896.722 289.523 898.778 286.955 900.233 283.568C901.71 280.182 902.449 276.023 902.449 271.091ZM928.349 306V236.182H955.895C961.168 236.182 965.668 237.125 969.395 239.011C973.145 240.875 975.997 243.523 977.952 246.955C979.929 250.364 980.918 254.375 980.918 258.989C980.918 263.625 979.918 267.614 977.918 270.955C975.918 274.273 973.02 276.818 969.224 278.591C965.452 280.364 960.884 281.25 955.52 281.25H937.077V269.386H953.134C955.952 269.386 958.293 269 960.156 268.227C962.02 267.455 963.406 266.295 964.315 264.75C965.247 263.205 965.713 261.284 965.713 258.989C965.713 256.67 965.247 254.716 964.315 253.125C963.406 251.534 962.009 250.33 960.122 249.511C958.259 248.67 955.906 248.25 953.065 248.25H943.111V306H928.349ZM966.054 274.227L983.406 306H967.111L950.134 274.227H966.054ZM991.349 306V236.182H1038.39V248.352H1006.11V264.989H1035.97V277.159H1006.11V293.83H1038.53V306H991.349ZM1062.16 306H1046.35L1070.45 236.182H1089.47L1113.54 306H1097.72L1080.23 252.136H1079.69L1062.16 306ZM1061.18 278.557H1098.54V290.08H1061.18V278.557ZM1168.91 306H1144.16V236.182H1169.12C1176.14 236.182 1182.18 237.58 1187.25 240.375C1192.32 243.148 1196.22 247.136 1198.95 252.341C1201.7 257.545 1203.07 263.773 1203.07 271.023C1203.07 278.295 1201.7 284.545 1198.95 289.773C1196.22 295 1192.3 299.011 1187.18 301.807C1182.09 304.602 1176 306 1168.91 306ZM1158.92 293.352H1168.3C1172.66 293.352 1176.33 292.58 1179.31 291.034C1182.31 289.466 1184.56 287.045 1186.06 283.773C1187.58 280.477 1188.34 276.227 1188.34 271.023C1188.34 265.864 1187.58 261.648 1186.06 258.375C1184.56 255.102 1182.32 252.693 1179.34 251.148C1176.37 249.602 1172.7 248.83 1168.33 248.83H1158.92V293.352ZM1214.01 306V236.182H1241.55C1246.82 236.182 1251.32 237.125 1255.05 239.011C1258.8 240.875 1261.65 243.523 1263.61 246.955C1265.59 250.364 1266.57 254.375 1266.57 258.989C1266.57 263.625 1265.57 267.614 1263.57 270.955C1261.57 274.273 1258.68 276.818 1254.88 278.591C1251.11 280.364 1246.54 281.25 1241.18 281.25H1222.73V269.386H1238.79C1241.61 269.386 1243.95 269 1245.81 268.227C1247.68 267.455 1249.06 266.295 1249.97 264.75C1250.9 263.205 1251.37 261.284 1251.37 258.989C1251.37 256.67 1250.9 254.716 1249.97 253.125C1249.06 251.534 1247.66 250.33 1245.78 249.511C1243.91 248.67 1241.56 248.25 1238.72 248.25H1228.77V306H1214.01ZM1251.71 274.227L1269.06 306H1252.77L1235.79 274.227H1251.71ZM1291.77 236.182V306H1277.01V236.182H1291.77ZM1316.53 236.182L1333.4 289.227H1334.05L1350.96 236.182H1367.32L1343.25 306H1324.23L1300.13 236.182H1316.53ZM1390.49 236.182V306H1375.72V236.182H1390.49ZM1461.03 236.182V306H1448.28L1417.9 262.057H1417.39V306H1402.63V236.182H1415.59L1445.72 280.091H1446.34V236.182H1461.03ZM1519.52 258.75C1519.04 257.091 1518.37 255.625 1517.51 254.352C1516.64 253.057 1515.59 251.966 1514.34 251.08C1513.11 250.17 1511.7 249.477 1510.11 249C1508.54 248.523 1506.8 248.284 1504.89 248.284C1501.33 248.284 1498.19 249.17 1495.49 250.943C1492.8 252.716 1490.71 255.295 1489.21 258.682C1487.71 262.045 1486.96 266.159 1486.96 271.023C1486.96 275.886 1487.7 280.023 1489.18 283.432C1490.66 286.841 1492.75 289.443 1495.45 291.239C1498.16 293.011 1501.35 293.898 1505.03 293.898C1508.37 293.898 1511.22 293.307 1513.59 292.125C1515.97 290.92 1517.79 289.227 1519.04 287.045C1520.32 284.864 1520.95 282.284 1520.95 279.307L1523.95 279.75H1505.95V268.636H1535.17V277.432C1535.17 283.568 1533.87 288.841 1531.28 293.25C1528.69 297.636 1525.12 301.023 1520.58 303.409C1516.03 305.773 1510.83 306.955 1504.96 306.955C1498.42 306.955 1492.67 305.511 1487.71 302.625C1482.76 299.716 1478.89 295.591 1476.12 290.25C1473.37 284.886 1472 278.523 1472 271.159C1472 265.5 1472.82 260.455 1474.45 256.023C1476.11 251.568 1478.43 247.795 1481.41 244.705C1484.38 241.614 1487.85 239.261 1491.8 237.648C1495.76 236.034 1500.04 235.227 1504.66 235.227C1508.61 235.227 1512.29 235.807 1515.7 236.966C1519.11 238.102 1522.13 239.716 1524.77 241.807C1527.43 243.898 1529.6 246.386 1531.28 249.273C1532.96 252.136 1534.04 255.295 1534.52 258.75H1519.52ZM1630.08 260.625H1615.14C1614.87 258.693 1614.32 256.977 1613.47 255.477C1612.63 253.955 1611.55 252.659 1610.24 251.591C1608.92 250.523 1607.39 249.705 1605.67 249.136C1603.96 248.568 1602.11 248.284 1600.11 248.284C1596.5 248.284 1593.35 249.182 1590.67 250.977C1587.99 252.75 1585.91 255.341 1584.43 258.75C1582.95 262.136 1582.21 266.25 1582.21 271.091C1582.21 276.068 1582.95 280.25 1584.43 283.636C1585.93 287.023 1588.02 289.58 1590.7 291.307C1593.38 293.034 1596.49 293.898 1600.01 293.898C1601.99 293.898 1603.82 293.636 1605.5 293.114C1607.2 292.591 1608.71 291.83 1610.03 290.83C1611.35 289.807 1612.44 288.568 1613.3 287.114C1614.19 285.659 1614.8 284 1615.14 282.136L1630.08 282.205C1629.69 285.409 1628.72 288.5 1627.18 291.477C1625.66 294.432 1623.6 297.08 1621.01 299.42C1618.44 301.739 1615.37 303.58 1611.8 304.943C1608.26 306.284 1604.25 306.955 1599.77 306.955C1593.54 306.955 1587.97 305.545 1583.07 302.727C1578.18 299.909 1574.32 295.83 1571.47 290.489C1568.66 285.148 1567.25 278.682 1567.25 271.091C1567.25 263.477 1568.68 257 1571.54 251.659C1574.41 246.318 1578.29 242.25 1583.2 239.455C1588.11 236.636 1593.63 235.227 1599.77 235.227C1603.82 235.227 1607.57 235.795 1611.02 236.932C1614.5 238.068 1617.58 239.727 1620.26 241.909C1622.94 244.068 1625.12 246.716 1626.8 249.852C1628.51 252.989 1629.6 256.58 1630.08 260.625ZM1640.66 306V236.182H1687.71V248.352H1655.42V264.989H1685.29V277.159H1655.42V293.83H1687.84V306H1640.66ZM1757.84 236.182V306H1745.09L1714.72 262.057H1714.2V306H1699.44V236.182H1712.4L1742.53 280.091H1743.15V236.182H1757.84ZM1767.38 248.352V236.182H1824.72V248.352H1803.34V306H1788.75V248.352H1767.38ZM1834.16 306V236.182H1881.21V248.352H1848.92V264.989H1878.79V277.159H1848.92V293.83H1881.34V306H1834.16ZM1892.94 306V236.182H1920.49C1925.76 236.182 1930.26 237.125 1933.99 239.011C1937.74 240.875 1940.59 243.523 1942.55 246.955C1944.52 250.364 1945.51 254.375 1945.51 258.989C1945.51 263.625 1944.51 267.614 1942.51 270.955C1940.51 274.273 1937.61 276.818 1933.82 278.591C1930.05 280.364 1925.48 281.25 1920.11 281.25H1901.67V269.386H1917.73C1920.55 269.386 1922.89 269 1924.75 268.227C1926.61 267.455 1928 266.295 1928.91 264.75C1929.84 263.205 1930.31 261.284 1930.31 258.989C1930.31 256.67 1929.84 254.716 1928.91 253.125C1928 251.534 1926.6 250.33 1924.72 249.511C1922.85 248.67 1920.5 248.25 1917.66 248.25H1907.7V306H1892.94ZM1930.65 274.227L1948 306H1931.7L1914.73 274.227H1930.65Z" fill="#FC094C"/>
<path d="M557.152 117.432H619.168V143.928H570.208V157.368H557.248V134.328H606.208V127.512H557.152V117.432ZM557.248 151.224H621.28V161.304H557.248V151.224ZM547.936 167.832H628.384V178.008H547.936V167.832ZM581.632 171.576H594.304V203.64H581.632V171.576ZM669.273 119.736H680.312V126.168C680.312 130.008 679.769 133.752 678.681 137.4C677.657 140.984 676.121 144.376 674.073 147.576C672.025 150.776 669.497 153.688 666.489 156.312C663.545 158.872 660.153 161.08 656.312 162.936C652.473 164.792 648.249 166.168 643.641 167.064L638.169 156.408C642.137 155.704 645.753 154.648 649.017 153.24C652.345 151.768 655.257 150.008 657.753 147.96C660.249 145.912 662.361 143.704 664.089 141.336C665.817 138.904 667.097 136.408 667.929 133.848C668.825 131.224 669.273 128.664 669.273 126.168V119.736ZM671.769 119.736H682.905V126.168C682.905 128.728 683.321 131.32 684.153 133.944C685.049 136.568 686.329 139.096 687.993 141.528C689.721 143.896 691.833 146.072 694.329 148.056C696.825 150.04 699.705 151.768 702.969 153.24C706.233 154.648 709.913 155.704 714.009 156.408L708.537 167.064C703.929 166.168 699.705 164.792 695.865 162.936C692.025 161.08 688.601 158.872 685.593 156.312C682.649 153.752 680.121 150.872 678.009 147.672C675.961 144.472 674.393 141.048 673.305 137.4C672.281 133.752 671.769 130.008 671.769 126.168V119.736ZM636.249 182.232H716.793V192.696H636.249V182.232ZM759.045 160.568V172.091H727.205V160.568H759.045ZM778.585 121.944H834.649V132.216H778.585V121.944ZM769.465 183H849.913V193.272H769.465V183ZM829.465 121.944H842.137V129.816C842.137 133.4 842.073 137.24 841.945 141.336C841.881 145.432 841.561 150.008 840.985 155.064C840.409 160.12 839.449 165.912 838.105 172.44L825.433 171.096C827.481 162.072 828.665 154.232 828.985 147.576C829.305 140.856 829.465 134.936 829.465 129.816V121.944ZM831.769 143.352V153.048L777.529 155.928L775.897 145.08L831.769 143.352ZM797.977 161.688H810.841V186.744H797.977V161.688ZM919.026 114.456H931.89V203.64H919.026V114.456ZM862.674 172.536H870.546C875.794 172.536 880.754 172.472 885.426 172.344C890.098 172.152 894.674 171.864 899.154 171.48C903.634 171.032 908.21 170.392 912.882 169.56L914.226 179.832C907.058 181.112 899.986 181.976 893.01 182.424C886.098 182.808 878.61 183 870.546 183H862.674V172.536ZM862.482 122.04H904.434V156.504H875.634V176.472H862.674V146.424H891.474V132.312H862.482V122.04ZM969.994 120.696C974.538 120.696 978.538 122.008 981.994 124.632C985.514 127.192 988.266 130.872 990.25 135.672C992.298 140.408 993.322 146.008 993.322 152.472C993.322 159 992.298 164.664 990.25 169.464C988.266 174.2 985.514 177.88 981.994 180.504C978.538 183.064 974.538 184.344 969.994 184.344C965.45 184.344 961.418 183.064 957.898 180.504C954.378 177.88 951.594 174.2 949.546 169.464C947.562 164.664 946.57 159 946.57 152.472C946.57 146.008 947.562 140.408 949.546 135.672C951.594 130.872 954.378 127.192 957.898 124.632C961.418 122.008 965.45 120.696 969.994 120.696ZM969.994 132.312C967.818 132.312 965.866 133.08 964.138 134.616C962.474 136.152 961.162 138.424 960.202 141.432C959.306 144.376 958.858 148.056 958.858 152.472C958.858 156.824 959.306 160.536 960.202 163.608C961.162 166.616 962.474 168.888 964.138 170.424C965.866 171.96 967.818 172.728 969.994 172.728C972.17 172.728 974.09 171.96 975.754 170.424C977.418 168.888 978.698 166.616 979.594 163.608C980.554 160.536 981.034 156.824 981.034 152.472C981.034 148.056 980.554 144.376 979.594 141.432C978.698 138.424 977.418 136.152 975.754 134.616C974.09 133.08 972.17 132.312 969.994 132.312ZM1002.92 114.648H1015.79V203.544H1002.92V114.648ZM1013 148.152H1028.65V158.616H1013V148.152ZM1066.13 155.64H1128.62V165.72H1066.13V155.64ZM1056.72 182.424H1137.26V192.792H1056.72V182.424ZM1066.13 121.848H1127.95V132.216H1078.8V159.864H1066.13V121.848ZM1201.96 114.456H1214.73V203.64H1201.96V114.456ZM1211.85 148.152H1227.49V158.616H1211.85V148.152ZM1148.68 172.536H1156.07C1161.13 172.536 1165.86 172.472 1170.28 172.344C1174.69 172.216 1178.98 171.96 1183.14 171.576C1187.37 171.128 1191.65 170.552 1196.01 169.848L1197.16 180.12C1192.68 180.888 1188.26 181.496 1183.91 181.944C1179.62 182.328 1175.21 182.616 1170.66 182.808C1166.12 183 1161.25 183.096 1156.07 183.096H1148.68V172.536ZM1148.49 122.04H1189.38V156.504H1161.25V176.568H1148.68V146.424H1176.71V132.312H1148.49V122.04ZM1294.3 114.456H1307.07V203.64H1294.3V114.456ZM1259.17 120.696C1263.71 120.696 1267.74 122.008 1271.26 124.632C1274.78 127.192 1277.53 130.872 1279.52 135.672C1281.57 140.408 1282.59 146.008 1282.59 152.472C1282.59 159 1281.57 164.664 1279.52 169.464C1277.53 174.2 1274.78 177.88 1271.26 180.504C1267.74 183.064 1263.71 184.344 1259.17 184.344C1254.69 184.344 1250.69 183.064 1247.17 180.504C1243.65 177.88 1240.86 174.2 1238.81 169.464C1236.83 164.664 1235.84 159 1235.84 152.472C1235.84 146.008 1236.83 140.408 1238.81 135.672C1240.86 130.872 1243.65 127.192 1247.17 124.632C1250.69 122.008 1254.69 120.696 1259.17 120.696ZM1259.17 132.312C1256.99 132.312 1255.07 133.08 1253.41 134.616C1251.74 136.152 1250.43 138.424 1249.47 141.432C1248.57 144.376 1248.13 148.056 1248.13 152.472C1248.13 156.824 1248.57 160.536 1249.47 163.608C1250.43 166.616 1251.74 168.888 1253.41 170.424C1255.07 171.96 1256.99 172.728 1259.17 172.728C1261.41 172.728 1263.36 171.96 1265.02 170.424C1266.69 168.888 1267.97 166.616 1268.86 163.608C1269.82 160.536 1270.3 156.824 1270.3 152.472C1270.3 148.056 1269.82 144.376 1268.86 141.432C1267.97 138.424 1266.69 136.152 1265.02 134.616C1263.36 133.08 1261.41 132.312 1259.17 132.312ZM1326.07 119.928H1338.74V131.448H1356.6V119.928H1369.27V162.264H1326.07V119.928ZM1338.74 141.24V152.28H1356.6V141.24H1338.74ZM1382.71 114.648H1395.48V167.736H1382.71V114.648ZM1365.43 169.272C1371.7 169.272 1377.08 169.944 1381.56 171.288C1386.1 172.632 1389.62 174.584 1392.12 177.144C1394.61 179.704 1395.86 182.808 1395.86 186.456C1395.86 190.04 1394.61 193.112 1392.12 195.672C1389.62 198.232 1386.1 200.184 1381.56 201.528C1377.08 202.872 1371.7 203.544 1365.43 203.544C1356.09 203.544 1348.66 202.04 1343.16 199.032C1337.72 196.088 1335 191.864 1335 186.36C1335 182.776 1336.21 179.704 1338.65 177.144C1341.14 174.584 1344.66 172.632 1349.21 171.288C1353.81 169.944 1359.22 169.272 1365.43 169.272ZM1365.43 179.064C1361.59 179.064 1358.33 179.352 1355.64 179.928C1353.01 180.44 1351.03 181.24 1349.69 182.328C1348.41 183.416 1347.77 184.792 1347.77 186.456C1347.77 188.056 1348.41 189.4 1349.69 190.488C1351.03 191.576 1353.01 192.408 1355.64 192.984C1358.33 193.496 1361.59 193.752 1365.43 193.752C1369.33 193.752 1372.57 193.496 1375.13 192.984C1377.75 192.408 1379.73 191.576 1381.08 190.488C1382.42 189.4 1383.09 188.056 1383.09 186.456C1383.09 184.792 1382.42 183.416 1381.08 182.328C1379.73 181.24 1377.75 180.44 1375.13 179.928C1372.57 179.352 1369.33 179.064 1365.43 179.064ZM1467.51 134.904H1481.53V145.176H1467.51V134.904ZM1495.74 114.648H1507.93V181.08H1495.74V114.648ZM1478.07 116.088H1489.98V178.488H1478.07V116.088ZM1448.03 191.736H1510.14V202.008H1448.03V191.736ZM1448.03 173.4H1460.89V198.168H1448.03V173.4ZM1447.83 120.504H1457.82V131.928C1457.82 137.176 1457.11 142.264 1455.71 147.192C1454.36 152.12 1452.22 156.568 1449.27 160.536C1446.39 164.44 1442.59 167.512 1437.85 169.752L1430.94 159.96C1435.03 157.976 1438.3 155.48 1440.73 152.472C1443.23 149.464 1445.02 146.168 1446.11 142.584C1447.26 139 1447.83 135.448 1447.83 131.928V120.504ZM1450.33 120.504H1460.12V131.928C1460.12 135.384 1460.63 138.744 1461.66 142.008C1462.68 145.272 1464.31 148.28 1466.55 151.032C1468.86 153.72 1471.83 155.992 1475.48 157.848L1468.57 167.544C1464.22 165.432 1460.7 162.552 1458.01 158.904C1455.32 155.256 1453.37 151.128 1452.15 146.52C1450.94 141.848 1450.33 136.984 1450.33 131.928V120.504ZM1582.32 114.456H1595.09V203.64H1582.32V114.456ZM1567.06 145.848H1583.86V156.216H1567.06V145.848ZM1524.43 173.304H1531.63C1536.56 173.304 1541.11 173.24 1545.27 173.112C1549.49 172.984 1553.59 172.76 1557.55 172.44C1561.52 172.12 1565.59 171.672 1569.75 171.096L1570.99 181.176C1566.71 181.88 1562.48 182.392 1558.32 182.712C1554.23 183.032 1550 183.256 1545.65 183.384C1541.3 183.512 1536.63 183.576 1531.63 183.576H1524.43V173.304ZM1524.43 121.944H1565.62V132.312H1537.2V176.472H1524.43V121.944ZM1534.23 146.712H1562.64V156.696H1534.23V146.712Z" fill="#FC094C"/>
<path d="M541.431 1.0405C617.618 1.81284 631.747 18.5826 740.042 77.7607C749.55 82.8143 754.981 84.2673 765 85.3694C753.196 85.913 739.83 85.0503 734.331 81.7764C622.017 14.9131 595.231 5.55013 541.431 5.90157C430.174 5.90157 387.058 5.54982 326.956 15.201L475.015 16.8918C432.588 76.0435 409.869 94.4575 403.524 95.9369C401.418 91.9414 398.405 90.6314 389.141 90.2305C327.785 87.9325 291.516 87.4242 224.584 87.4829C309.503 83.4236 362.388 80.3321 403.524 83.0445C417.061 73.7451 454.71 30.6296 453.652 25.1345C396.248 24.6157 364.093 24.2429 307.074 22.3869C272.597 39.0836 232.364 64.5637 213.162 80.297C232.366 62.5708 242.123 53.9572 261.81 41.6198C231.775 54.3008 227.721 58.2421 182.07 90.2305C94.0518 104.382 55.1495 113.505 28.2998 134.614C25.4316 140.421 25.4774 146.168 25.9731 156.383C26.53 167.361 26.8077 173.405 23.2235 173.08C21.1819 172.773 20.0865 172.417 18.5702 170.332C21.5769 159.997 21.0211 157.061 16.455 156.383C8.32896 166.408 9.33673 176.806 11.0946 194.945L11.1672 195.694C36.1258 209.644 31.261 220.211 23.2235 235.64C18.5315 235.276 16.7906 233.872 15.609 228.876C22.2096 231.057 22.1659 213.521 15.609 212.18C9.43987 210.917 9.62765 221.354 11.8018 245.573C115.802 253.402 176.588 254.571 287.192 253.816C288.771 193.283 300.305 163.569 334.359 150.465C360.826 142.406 382.5 156.649 394.033 181.156C402.4 198.935 403.101 236.274 397.601 259.734L526.201 257.62L392.525 264.172C398.942 221.038 397.26 199.416 389.227 184.039C376.988 160.61 364.507 149.051 338.589 155.538C302.442 167.152 297.534 197.992 293.96 261.213C218.027 264.383 69.7563 261.213 3.55307 254.873C-1.73471 225.918 -1.94592 162.935 8.62938 136.939C48.1055 104.219 89.7589 94.237 178.474 82.6218C231.163 49.0997 258.314 26.4906 307.074 8.01507C385.896 -1.81778 395.487 -0.438984 541.431 1.0405Z" fill="#FC094C"/>
<path d="M683.355 85.5807L450.268 88.5396L704.718 95.9369C619.69 -6.35677 493.417 -21.574 441.173 78.1835C502.723 -6.99083 604.25 4.4221 683.355 85.5807Z" fill="#FC094C"/>
<path d="M190.742 141.8C160.937 131.316 75.6787 131.232 53.2583 141.8C70.8139 137.996 143.358 134.896 178.474 147.506L155.208 191.256L86.6773 202.458C81.3769 203.884 80.4022 203.71 75.6787 202.035L35.0682 188.72L31.8955 162.09L30.4149 192.735L70.8139 208.375C77.0966 210.772 80.8712 211.127 88.581 210.066L163.88 199.287L190.742 141.8Z" fill="#FC094C"/>
<path d="M297.133 127.851C255.129 133.832 236.993 140.137 221.623 160.61C226.551 135.703 248.062 126.371 312.362 113.902C338.589 112.211 341.611 123.361 325.898 127.851C294.942 139.253 278.388 145.733 279.789 160.61C280.629 166.466 278.758 167.182 273.655 166.528C268.367 209.644 264.348 230.356 249.331 238.599L183.973 237.119L173.609 233.103L244.889 232.047C257.659 218.019 260.695 204.691 264.348 178.575C265.194 173.714 258.849 173.291 258.849 177.941L256.099 191.256C252.576 204.665 245.317 206.568 230.083 207.53L180.589 216.618L163.88 227.608L178.474 212.18L226.064 200.978L226.306 200.956C238.317 199.851 245.122 199.225 247.004 189.988L250.811 168.853L231.352 167.585L271.751 159.342C272.708 145.496 277.861 138.527 297.133 127.851Z" fill="#FC094C"/>
<path d="M378.777 228.031C381.949 169.91 341.762 144.97 314.477 185.972C334.359 142.857 389.352 150.465 390.621 228.031C390.621 294.184 326.956 322.927 310.035 264.172C328.014 308.133 377.085 295.241 378.777 228.031Z" fill="#FC094C"/>
</svg>
